<?xml version="1.0" standalone="no"?>
<!DOCTYPE svg PUBLIC "-//W3C//DTD SVG 1.1//EN" "http://www.w3.org/Graphics/SVG/1.1/DTD/svg11.dtd" >
<svg xmlns="http://www.w3.org/2000/svg" xmlns:xlink="http://www.w3.org/1999/xlink" version="1.1" viewBox="-10 0 1302 2048">
   <path fill="currentColor"
d="M1100 1826l-36 -8q-548 -420 -764 -952q-172 -68 -196 -292q8 -408 324 -488q100 20 112 160q-212 40 -220 288q8 116 62 168t162 92q60 -48 216 -84q124 -20 156 -128q16 -160 -96 -244q-92 -84 -68 -172t108 -128h40q24 116 120 244t96 308q-36 264 -292 332l-120 36
q-56 24 -48 124q68 276 524 668q-12 76 -80 76z" />
</svg>
