<?xml version="1.0" standalone="no"?>
<!DOCTYPE svg PUBLIC "-//W3C//DTD SVG 1.1//EN" "http://www.w3.org/Graphics/SVG/1.1/DTD/svg11.dtd" >
<svg xmlns="http://www.w3.org/2000/svg" xmlns:xlink="http://www.w3.org/1999/xlink" version="1.1" viewBox="-10 0 1670 2048">
   <path fill="currentColor"
d="M1480 1838q-278 -140 -463 -386t-205 -514q14 -162 84 -320h-276q-32 196 -196 304q-44 24 -44 -24v-196l-42 -84h-154q-76 -4 -84 -80q8 -76 84 -80h154l42 -84v-196q0 -48 44 -24q164 108 196 304h372q194 -274 488 -420q32 0 50 16t20 50q-482 366 -494 834
q12 468 494 834q-2 34 -20 50t-50 16z" />
</svg>
