<?xml version="1.0" standalone="no"?>
<!DOCTYPE svg PUBLIC "-//W3C//DTD SVG 1.1//EN" "http://www.w3.org/Graphics/SVG/1.1/DTD/svg11.dtd" >
<svg xmlns="http://www.w3.org/2000/svg" xmlns:xlink="http://www.w3.org/1999/xlink" version="1.1" viewBox="-10 0 902 2048">
   <path fill="currentColor"
d="M472 1838q-82 -68 -88 -180q6 -86 56 -165t48 -143q-8 -78 -44 -140l-168 -334q-66 -94 -160 -110v-48q216 -168 404 -628q20 -36 62 -36q46 0 66 44l124 248q16 44 20 84q-4 80 -136 104l-200 200q-42 42 -4 96l180 308q58 104 64 212q-6 126 -66 210q-58 80 -58 278
h-100z" />
</svg>
