<?xml version="1.0" standalone="no"?>
<!DOCTYPE svg PUBLIC "-//W3C//DTD SVG 1.1//EN" "http://www.w3.org/Graphics/SVG/1.1/DTD/svg11.dtd" >
<svg xmlns="http://www.w3.org/2000/svg" xmlns:xlink="http://www.w3.org/1999/xlink" version="1.1" viewBox="-10 0 1406 2048">
   <path fill="currentColor"
d="M160 1838q-52 -76 -56 -152v-128q124 -132 288 -172l212 -1068h-260q-60 4 -84 -32l-84 -180q-20 -64 44 -68h880q56 4 72 48l88 168q12 60 -32 64h-384l-204 1024q116 -20 256 -28q260 12 372 80q24 16 24 40q0 44 -52 44q-88 -48 -244 -44q-264 8 -470 100t-366 304z
" />
</svg>
