<?xml version="1.0" standalone="no"?>
<!DOCTYPE svg PUBLIC "-//W3C//DTD SVG 1.1//EN" "http://www.w3.org/Graphics/SVG/1.1/DTD/svg11.dtd" >
<svg xmlns="http://www.w3.org/2000/svg" xmlns:xlink="http://www.w3.org/1999/xlink" version="1.1" viewBox="-10 0 1666 2048">
   <path fill="currentColor"
d="M808 1838q-260 -24 -404 -100q-96 -76 8 -76h396q140 0 232 -30t112 -142v-280q-84 84 -272 84q-160 -16 -236 -150t-84 -314q-6 -146 -130 -152q-42 0 -82 44q-80 104 -228 176q-24 -4 -24 -32q244 -336 332 -828h72q184 204 216 796q16 228 204 256q180 8 232 -192
l68 -340q80 -360 300 -520q44 8 44 76q-176 144 -204 480v896q-28 196 -156 270t-396 78z" />
</svg>
