<?xml version="1.0" standalone="no"?>
<!DOCTYPE svg PUBLIC "-//W3C//DTD SVG 1.1//EN" "http://www.w3.org/Graphics/SVG/1.1/DTD/svg11.dtd" >
<svg xmlns="http://www.w3.org/2000/svg" xmlns:xlink="http://www.w3.org/1999/xlink" version="1.1" viewBox="-10 0 1450 2048">
   <path fill="currentColor"
d="M1080 1842l-372 -240q-212 -132 -224 -436q24 -324 404 -388q-216 -256 -140 -460h-356l-292 -144v-136h1180l44 84v320q-40 56 -104 -4q-20 -88 -80 -120h-48l-48 92q-32 112 64 232q68 76 72 168q-8 96 -144 108q-300 60 -312 292q2 186 116 292l296 292q4 48 -56 48z
" />
</svg>
