<?xml version="1.0" standalone="no"?>
<!DOCTYPE svg PUBLIC "-//W3C//DTD SVG 1.1//EN" "http://www.w3.org/Graphics/SVG/1.1/DTD/svg11.dtd" >
<svg xmlns="http://www.w3.org/2000/svg" xmlns:xlink="http://www.w3.org/1999/xlink" version="1.1" viewBox="-10 0 1598 2048">
   <path fill="currentColor"
d="M632 1838q-204 -4 -360 -80t-172 -280q8 -324 312 -516q72 -16 60 64q-168 156 -176 452q12 96 122 132t214 -12q88 124 0 240zM900 1798l-128 -128h380q140 -20 152 -144q4 -84 -68 -160l-584 -468q-280 -252 -300 -532q4 -200 80 -328q22 -36 56 -36q14 0 12 36v176
q24 248 328 540l464 364q188 156 196 408q-20 252 -336 272h-252z" />
</svg>
