<?xml version="1.0" standalone="no"?>
<!DOCTYPE svg PUBLIC "-//W3C//DTD SVG 1.1//EN" "http://www.w3.org/Graphics/SVG/1.1/DTD/svg11.dtd" >
<svg xmlns="http://www.w3.org/2000/svg" xmlns:xlink="http://www.w3.org/1999/xlink" version="1.1" viewBox="-10 0 1606 2048">
   <path fill="currentColor"
d="M304 1802q-64 0 -76 -40q216 -396 256 -820q-8 -272 -84 -416q-20 -44 -68 -60h-68q-144 -28 -164 -176v-128q20 -108 164 -124h156q112 16 124 124h864l88 208q0 56 -72 70t-76 62q68 152 76 444q-16 452 -412 856q-64 0 -76 -40q216 -396 256 -820q-8 -272 -84 -416
q-20 -44 -68 -60h-316q-76 -4 -84 36q68 152 76 444q-16 452 -412 856z" />
</svg>
