<?xml version="1.0" standalone="no"?>
<!DOCTYPE svg PUBLIC "-//W3C//DTD SVG 1.1//EN" "http://www.w3.org/Graphics/SVG/1.1/DTD/svg11.dtd" >
<svg xmlns="http://www.w3.org/2000/svg" xmlns:xlink="http://www.w3.org/1999/xlink" version="1.1" viewBox="-10 0 1350 2048">
   <path fill="currentColor"
d="M1200 1850q-20 0 -64 -32q-180 -128 -308 -492l-316 2q-62 372 -360 502q-40 -4 -40 -48q192 -260 192 -576t-192 -576q0 -44 40 -48q298 130 360 502l280 -2q-4 -64 -8 -144q-4 -172 86 -430t266 -450q28 -36 60 -36q36 0 44 36q-192 428 -200 880q8 484 200 880
q-12 32 -40 32z" />
</svg>
