<?xml version="1.0" standalone="no"?>
<!DOCTYPE svg PUBLIC "-//W3C//DTD SVG 1.1//EN" "http://www.w3.org/Graphics/SVG/1.1/DTD/svg11.dtd" >
<svg xmlns="http://www.w3.org/2000/svg" xmlns:xlink="http://www.w3.org/1999/xlink" version="1.1" viewBox="-10 0 1198 2048">
   <path fill="currentColor"
d="M264 1838q-60 -8 -28 -68q144 -92 189 -189t47 -229q-8 -80 -44 -142l-168 -334q-66 -94 -160 -110v-48q252 -124 460 -568q72 -112 196 -112h216v-108h36q96 52 108 208q-16 256 -324 416l-352 180q-42 42 -4 96l180 308q58 104 64 212q-6 126 -66 214q-86 146 -350 274
z" />
</svg>
