<?xml version="1.0" standalone="no"?>
<!DOCTYPE svg PUBLIC "-//W3C//DTD SVG 1.1//EN" "http://www.w3.org/Graphics/SVG/1.1/DTD/svg11.dtd" >
<svg xmlns="http://www.w3.org/2000/svg" xmlns:xlink="http://www.w3.org/1999/xlink" version="1.1" viewBox="-10 0 1470 2048">
   <path fill="currentColor"
d="M1044 1838l-80 -160v-784q-8 -86 -104 -102h-332q-62 372 -360 502q-30 0 -40 -12q0 -22 16 -48q176 -248 176 -564t-176 -564q-16 -26 -16 -48q18 -12 40 -12q298 130 360 502h428q132 -12 200 -176q68 -68 136 0l68 236q12 70 12 114q0 88 -112 257t-124 369v490h-92z
" />
</svg>
