<?xml version="1.0" standalone="no"?>
<!DOCTYPE svg PUBLIC "-//W3C//DTD SVG 1.1//EN" "http://www.w3.org/Graphics/SVG/1.1/DTD/svg11.dtd" >
<svg xmlns="http://www.w3.org/2000/svg" xmlns:xlink="http://www.w3.org/1999/xlink" version="1.1" viewBox="-10 0 1074 2048">
   <path fill="currentColor"
d="M604 1842l-24 -4q-448 -656 -480 -1528q0 -136 98 -202t282 -70q140 8 212 72q56 64 0 64h-212q-132 4 -136 136q10 350 88 632l384 -192l60 120l-412 208q42 114 212 74l170 -50q52 -13 79 -15q27 -1 35 5t8 24t-28 30q-388 180 -348 400q12 92 72 244q-8 52 -60 52z
" />
</svg>
