<?xml version="1.0" standalone="no"?>
<!DOCTYPE svg PUBLIC "-//W3C//DTD SVG 1.1//EN" "http://www.w3.org/Graphics/SVG/1.1/DTD/svg11.dtd" >
<svg xmlns="http://www.w3.org/2000/svg" xmlns:xlink="http://www.w3.org/1999/xlink" version="1.1" viewBox="-10 0 1422 2048">
   <path fill="currentColor"
d="M376 1854l-20 -40q28 -248 252 -348v-788l-164 -164q-132 20 -256 248q-84 36 -84 -44q224 -520 580 -680h48q360 160 580 680q0 80 -84 44q-124 -228 -256 -248l-164 164v788q224 100 252 348l-20 40q-28 0 -48 -16q-108 -152 -284 -168q-176 16 -284 168q-20 16 -48 16
z" />
</svg>
