<?xml version="1.0" standalone="no"?>
<!DOCTYPE svg PUBLIC "-//W3C//DTD SVG 1.1//EN" "http://www.w3.org/Graphics/SVG/1.1/DTD/svg11.dtd" >
<svg xmlns="http://www.w3.org/2000/svg" xmlns:xlink="http://www.w3.org/1999/xlink" version="1.1" viewBox="-10 0 1274 2048">
   <path fill="currentColor"
d="M1004 1842l-32 -8q-644 -652 -840 -1132q-19 -51 -20 -102q4 -69 40 -114q124 -168 420 -404q32 -28 56 -28q20 0 48 20l268 272q80 80 76 200q-12 124 -88 188l-224 224q-52 56 -64 144q-4 108 60 192l384 472q-4 72 -84 76zM499 929l9 -7q4 -69 64 -132l104 -104
q46 -50 46 -98q-2 -88 -94 -150q-40 -30 -88 -4q-78 58 -156 160q-20 28 -20 64q1 41 12 68q32 72 123 203z" />
</svg>
