<?xml version="1.0" standalone="no"?>
<!DOCTYPE svg PUBLIC "-//W3C//DTD SVG 1.1//EN" "http://www.w3.org/Graphics/SVG/1.1/DTD/svg11.dtd" >
<svg xmlns="http://www.w3.org/2000/svg" xmlns:xlink="http://www.w3.org/1999/xlink" version="1.1" viewBox="-10 0 1482 2048">
   <path fill="currentColor"
d="M492 1822q-32 0 -42 -22t-10 -54q556 -376 680 -800q48 -168 -20 -300q-64 -136 -292 -136h-372q-128 108 -248 184q-40 20 -62 6t-22 -42q168 -260 288 -572q32 -48 84 -48t92 27t52 69q-8 80 -60 180h380q292 36 380 264q42 150 42 288q-46 488 -870 956z" />
</svg>
