<?xml version="1.0" standalone="no"?>
<!DOCTYPE svg PUBLIC "-//W3C//DTD SVG 1.1//EN" "http://www.w3.org/Graphics/SVG/1.1/DTD/svg11.dtd" >
<svg xmlns="http://www.w3.org/2000/svg" xmlns:xlink="http://www.w3.org/1999/xlink" version="1.1" viewBox="-10 0 1314 2048">
   <path fill="currentColor"
d="M880 1842q-524 -392 -756 -1216q-8 -32 -8 -56q0 -72 52 -128q224 -224 464 -376q38 -24 88 -24q48 0 92 24l276 276q114 118 116 240q-12 286 -340 488q-68 4 -44 -72q160 -156 168 -392q0 -72 -52 -132l-140 -140q-66 -48 -128 0q-152 96 -240 176q-56 48 -60 116
q92 672 568 1128q20 88 -56 88z" />
</svg>
