<?xml version="1.0" standalone="no"?>
<!DOCTYPE svg PUBLIC "-//W3C//DTD SVG 1.1//EN" "http://www.w3.org/Graphics/SVG/1.1/DTD/svg11.dtd" >
<svg xmlns="http://www.w3.org/2000/svg" xmlns:xlink="http://www.w3.org/1999/xlink" version="1.1" viewBox="-10 0 1794 2048">
   <path fill="currentColor"
d="M156 1838q-48 0 -72 -32q0 -20 16 -32q252 -220 296 -836q-44 -712 -276 -812q-24 -20 -24 -46q2 -38 60 -42q320 64 488 304q144 -236 416 -312q52 0 69 10t17 32q0 26 -18 38q-272 144 -372 388t-96 440q0 348 288 560t700 272q42 8 42 40q-2 24 -42 28
q-848 -36 -1112 -280q-148 216 -380 280z" />
</svg>
