<?xml version="1.0" standalone="no"?>
<!DOCTYPE svg PUBLIC "-//W3C//DTD SVG 1.1//EN" "http://www.w3.org/Graphics/SVG/1.1/DTD/svg11.dtd" >
<svg xmlns="http://www.w3.org/2000/svg" xmlns:xlink="http://www.w3.org/1999/xlink" version="1.1" viewBox="-10 0 1582 2048">
   <path fill="currentColor"
d="M1348 1846q-968 -180 -1048 -724q0 -148 84 -248v-444l-204 64q-76 4 -76 -68l12 -40q216 -96 284 -252l48 -96q228 8 240 196l-120 120v452l192 -60q316 -124 316 -416l-108 -56l-72 -140q-56 -96 60 -96h292q104 4 132 72l84 172l8 36q0 32 -44 52q-120 404 -600 520
q-172 48 -176 244q36 408 732 636q28 48 -36 76z" />
</svg>
