<?xml version="1.0" standalone="no"?>
<!DOCTYPE svg PUBLIC "-//W3C//DTD SVG 1.1//EN" "http://www.w3.org/Graphics/SVG/1.1/DTD/svg11.dtd" >
<svg xmlns="http://www.w3.org/2000/svg" xmlns:xlink="http://www.w3.org/1999/xlink" version="1.1" viewBox="-10 0 1402 2048">
   <path fill="currentColor"
d="M140 1842q-24 -4 -40 -32v-196q52 -564 208 -808q56 -68 116 -24q64 296 200 388q64 24 112 24q52 -8 72 -72q108 -740 308 -1064q20 -20 52 -20t40 48q-116 304 -136 620q4 372 212 568l16 44q0 40 -22 48t-74 -8q-368 -128 -700 28q-232 100 -324 428q-16 28 -40 28z
" />
</svg>
