<?xml version="1.0" standalone="no"?>
<!DOCTYPE svg PUBLIC "-//W3C//DTD SVG 1.1//EN" "http://www.w3.org/Graphics/SVG/1.1/DTD/svg11.dtd" >
<svg xmlns="http://www.w3.org/2000/svg" xmlns:xlink="http://www.w3.org/1999/xlink" version="1.1" viewBox="-10 0 1670 2048">
   <path fill="currentColor"
d="M1480 1838q-278 -140 -463 -386t-205 -514q14 -162 40 -204q-56 68 -208 76q-72 10 -154 92l-84 84q-72 20 -62 -56l104 -208q-64 -84 -152 -84q-80 12 -180 84q-44 28 -66 14t-22 -42l4 -28l152 -304q76 -148 196 -160q132 12 302 168t310 88q194 -274 488 -420
q36 0 52 16t18 50q-482 366 -494 834q12 468 494 834q-2 34 -20 50t-50 16z" />
</svg>
