<?xml version="1.0" standalone="no"?>
<!DOCTYPE svg PUBLIC "-//W3C//DTD SVG 1.1//EN" "http://www.w3.org/Graphics/SVG/1.1/DTD/svg11.dtd" >
<svg xmlns="http://www.w3.org/2000/svg" xmlns:xlink="http://www.w3.org/1999/xlink" version="1.1" viewBox="-10 0 1730 2048">
   <path fill="currentColor"
d="M534 1850q-10 0 -18 -10t-8 -26q28 -248 252 -348v-268l-556 556l-104 -104l416 -416q110 -122 116 -296q-6 -174 -116 -296l-416 -416l104 -104l556 556v-268q-224 -100 -252 -348q0 -16 8 -26t18 -10q30 0 42 12q108 152 284 168q176 -16 284 -168q12 -12 42 -12
q10 0 18 10t8 26q-28 248 -252 348v268l556 -556l104 104l-416 416q-110 122 -116 296q6 174 116 296l416 416l-104 104l-556 -556v268q224 100 252 348q0 16 -8 26t-18 10q-30 0 -42 -12q-108 -152 -284 -168q-176 16 -284 168q-12 12 -42 12z" />
</svg>
