<?xml version="1.0" standalone="no"?>
<!DOCTYPE svg PUBLIC "-//W3C//DTD SVG 1.1//EN" "http://www.w3.org/Graphics/SVG/1.1/DTD/svg11.dtd" >
<svg xmlns="http://www.w3.org/2000/svg" xmlns:xlink="http://www.w3.org/1999/xlink" version="1.1" viewBox="-10 0 1986 2048">
   <path fill="currentColor"
d="M45 162q119 24 231.5 39.5t222 25t217 13.5t216.5 4q87 0 175.5 -1.5t180.5 -5.5l473 -24q0 13 0.5 24t0.5 21q0 11 -0.5 20t-0.5 17q0 26 4 53.5t20 69t49 102.5t91 154l-45 45q-64 -29 -111 -50.5t-69 -21.5q-32 0 -32 34q0 21 9.5 56.5t30 88t51.5 124t74 164.5
q-43 45 -97 82t-120 67q-50 23 -97 51t-83.5 62t-58.5 75.5t-22 91.5q0 52 19.5 113t64 136t117 167t179.5 206l-45 45q-227 -76 -375.5 -159.5t-235.5 -173.5t-122 -186t-35 -198q1 -72 14.5 -126.5t36 -95.5t51.5 -71t61 -53q31 -22 60 -46.5t51.5 -55.5t36.5 -71.5
t16 -95.5q-1 -69 -25 -115t-69 -77.5t-110.5 -53t-149.5 -40.5q-85 -19 -185 -47.5t-212.5 -72.5t-237.5 -108.5t-260 -156.5z" />
</svg>
