<?xml version="1.0" standalone="no"?>
<!DOCTYPE svg PUBLIC "-//W3C//DTD SVG 1.1//EN" "http://www.w3.org/Graphics/SVG/1.1/DTD/svg11.dtd" >
<svg xmlns="http://www.w3.org/2000/svg" xmlns:xlink="http://www.w3.org/1999/xlink" version="1.1" viewBox="-10 0 2314 2048">
   <path fill="currentColor"
d="M0 1534q123 -133 227 -292.5t189 -336t150.5 -364.5t109.5 -379q51 17 102 68t101.5 123.5t100 160t98.5 178t96.5 178t93.5 158.5q91 141 180 147q55 -2 108 -32.5t104.5 -81.5t101 -119t97 -146t92 -162t86.5 -167t80.5 -161t73.5 -144h62q-128 532 -131 917
q-2 195 -2.5 353.5t-3.5 285.5t-39.5 218.5t-104.5 152.5q-72 66 -209.5 94t-349.5 27q-65 0 -146 -8.5t-183 -39.5t-228 -92.5t-283 -167.5l45 -45q275 35 474 55.5t332 20.5q94 0 160.5 -12t108 -40t60.5 -74.5t19 -115.5q0 -96 -31 -235q-9 -12 -98 -12q-58 0 -134 3.5
t-154 7t-150.5 7t-121.5 3.5q-66 0 -69 -13v-32q0 -97 -9.5 -164t-28 -108t-46 -59t-63.5 -18q-34 0 -80 19t-101.5 52t-119.5 78t-134 97q-96 70 -203.5 139t-228.5 139v-61z" />
</svg>
