<?xml version="1.0" standalone="no"?>
<!DOCTYPE svg PUBLIC "-//W3C//DTD SVG 1.1//EN" "http://www.w3.org/Graphics/SVG/1.1/DTD/svg11.dtd" >
<svg xmlns="http://www.w3.org/2000/svg" xmlns:xlink="http://www.w3.org/1999/xlink" version="1.1" viewBox="-10 0 952 2048">
   <path fill="currentColor"
d="M0 919q30 -39 78 -83.5t104.5 -94t117.5 -104t117.5 -114t102.5 -124.5t74 -135q57 12 101.5 40t77.5 63.5t55.5 74t36.5 72t20 58t6 30.5q-21 38 -40 62.5t-39 43.5t-41 36t-45.5 39t-53.5 53t-64 79q40 58 79 114t69 117.5t48.5 131t18.5 153.5q0 68 -12.5 147
t-40 174.5t-71 208.5t-105.5 249h-62q0 -176 -3 -306t-12 -227t-25.5 -166.5t-43.5 -124t-66 -100t-93 -94.5q-55 -50 -126.5 -117.5t-162.5 -155.5z" />
</svg>
