<?xml version="1.0" standalone="no"?>
<!DOCTYPE svg PUBLIC "-//W3C//DTD SVG 1.1//EN" "http://www.w3.org/Graphics/SVG/1.1/DTD/svg11.dtd" >
<svg xmlns="http://www.w3.org/2000/svg" xmlns:xlink="http://www.w3.org/1999/xlink" version="1.1" viewBox="-10 0 1454 2048">
   <path fill="currentColor"
d="M51 1083q85 -58 153 -126.5t122 -143.5t95.5 -153t74.5 -156t58 -153.5t46 -143.5l45 -45q21 2 33 21.5t12 57.5q0 46 -4 103.5t-4 122.5q0 42 4 77.5t15.5 61.5t32.5 41t54 16q20 -2 39.5 -2h39.5q128 0 226 30t164.5 84.5t100.5 131.5t34 170q0 183 -119.5 369
t-352.5 358q-168 125 -398 213t-522 141v-61q133 -54 253.5 -122t223 -145t185.5 -160.5t141 -167.5t89.5 -166t31.5 -157q0 -61 -24.5 -113t-58.5 -91.5t-71.5 -64.5t-62.5 -32q-32 -8 -60 -8q-57 0 -118 27.5t-129 67t-143.5 84.5t-160.5 79z" />
</svg>
