<?xml version="1.0" standalone="no"?>
<!DOCTYPE svg PUBLIC "-//W3C//DTD SVG 1.1//EN" "http://www.w3.org/Graphics/SVG/1.1/DTD/svg11.dtd" >
<svg xmlns="http://www.w3.org/2000/svg" xmlns:xlink="http://www.w3.org/1999/xlink" version="1.1" viewBox="-10 0 2109 2048">
   <path fill="currentColor"
d="M0 1780q157 -79 344 -316q90 -115 184.5 -250.5t185.5 -274t175.5 -270t154.5 -237.5q149 -224 226 -270h387h371v61q-168 45 -313 107.5t-251.5 136.5t-167 156t-60.5 164q0 57 30 109.5t93.5 100.5t163 90t238.5 78v62q-51 5 -108 9t-123 7l-260 12q-62 4 -116 9.5
t-94.5 13t-64 18.5t-24.5 25q6 60 153 88q75 14 162.5 37t188.5 55q202 64 364 223q165 161 209 486h-61q-58 -84 -115.5 -144t-124.5 -100.5t-148 -65t-185 -37t-235.5 -16.5t-299.5 -4q-63 0 -132 0.5t-145 0.5q-262 0 -602 -3v-61z" />
</svg>
