<?xml version="1.0" standalone="no"?>
<!DOCTYPE svg PUBLIC "-//W3C//DTD SVG 1.1//EN" "http://www.w3.org/Graphics/SVG/1.1/DTD/svg11.dtd" >
<svg xmlns="http://www.w3.org/2000/svg" xmlns:xlink="http://www.w3.org/1999/xlink" version="1.1" viewBox="-12 0 1456 2048">
   <path fill="currentColor"
d="M244 2189h-62q-19 -140 -36.5 -254t-34 -209t-31.5 -174.5t-27.5 -151t-22.5 -138.5t-17 -137.5t-11 -148t-4 -169.5q5 -231 51 -625q147 0 269 -2t223.5 -4.5t184.5 -6t151.5 -6t125.5 -4.5t107 -2q68 0 128.5 6t121.5 19q5 39 7.5 69t2.5 50q0 30 -5 51t-11.5 43.5
t-13.5 53.5t-11 81h-215q-155 0 -310 8t-302 33q-30 140 -58 260t-50 225.5t-35.5 199t-13.5 178.5q0 114 27.5 217.5t96.5 209.5z" />
</svg>
