<?xml version="1.0" standalone="no"?>
<!DOCTYPE svg PUBLIC "-//W3C//DTD SVG 1.1//EN" "http://www.w3.org/Graphics/SVG/1.1/DTD/svg11.dtd" >
<svg xmlns="http://www.w3.org/2000/svg" xmlns:xlink="http://www.w3.org/1999/xlink" version="1.1" viewBox="-10 0 1464 2048">
   <path fill="currentColor"
d="M983 2210q-154 -78 -287 -181.5t-242 -224t-193.5 -253.5t-142.5 -271t-88 -276t-30 -269q127 -57 221.5 -110t163 -102.5t113.5 -94.5t75 -84q31 -40 55 -71.5t48 -55t53 -37.5t70 -18q77 18 146.5 62t140.5 117t148 176t169 239q-2 96 -18 195.5t-56 206.5t-109 225
t-176 253h-61q21 -63 39 -136.5t31 -150.5t20.5 -155t7.5 -150t-13.5 -132.5t-41.5 -104t-72 -68t-104 -24.5q-68 4 -123 32.5t-93.5 80.5t-59.5 127t-21 171q1 95 28 209.5t84.5 245.5t147 278t215.5 306z" />
</svg>
