<?xml version="1.0" standalone="no"?>
<!DOCTYPE svg PUBLIC "-//W3C//DTD SVG 1.1//EN" "http://www.w3.org/Graphics/SVG/1.1/DTD/svg11.dtd" >
<svg xmlns="http://www.w3.org/2000/svg" xmlns:xlink="http://www.w3.org/1999/xlink" version="1.1" viewBox="-10 0 2058 2048">
   <path fill="currentColor"
d="M10 651q73 -37 141 -100t125 -138t100.5 -156.5t69.5 -156.5q67 2 113.5 16.5t78.5 37t52 52t33 62.5l51 127q16 39 48 66.5t75 27.5q45 0 100.5 -25t113 -63.5t113.5 -85.5t103 -92q1 0 19 -2.5t53 -7.5l176 -25q48 -5 100 -10t104 -8.5t102 -5.5t94 -2h32v61
q-72 12 -163 46.5t-184.5 86.5t-183 118t-160 140t-113.5 152t-44 155q0 137 23.5 259.5t65 233.5t97 210.5t119.5 190t133 173.5t138 160v62q-163 -98 -288.5 -208.5t-225.5 -231.5t-180.5 -252t-153.5 -271q-50 -94 -100 -192t-101 -201q-20 -6 -36.5 -8.5t-31.5 -2.5
q-25 0 -45.5 10t-37 26.5t-30 38t-24.5 44.5q-12 25 -27.5 49t-36.5 42.5t-48 30t-62 11.5q-28 0 -59 -6q1 -8 1.5 -17t0.5 -17q0 -63 -25 -115.5t-62 -100.5t-78.5 -93.5t-74.5 -94.5z" />
</svg>
