<?xml version="1.0" standalone="no"?>
<!DOCTYPE svg PUBLIC "-//W3C//DTD SVG 1.1//EN" "http://www.w3.org/Graphics/SVG/1.1/DTD/svg11.dtd" >
<svg xmlns="http://www.w3.org/2000/svg" xmlns:xlink="http://www.w3.org/1999/xlink" version="1.1" viewBox="-10 0 1704 2048">
   <path fill="currentColor"
d="M0 794q1 -78 30 -161t74 -165.5t100 -160t109 -145.5l494 34q-36 24 -78.5 59.5t-85 77t-82 86t-70 87.5t-49 81t-18.5 67q0 24 20.5 56t55 66t81.5 67t99.5 59t108.5 42t109 16q76 0 133.5 -32.5t96.5 -85t58.5 -119t19.5 -134.5q0 -83 -22 -181.5t-68 -211.5h123
q103 0 196 6t179 21q0 40 2 78t6 74l14 139q2 20 3 40t1 40q0 45 -6 87t-20 83l-383 342q-28 25 -50.5 45.5t-44.5 40t-45 40.5t-51 46q-26 24 -43 65.5t-17 95.5q0 62 24.5 138t83.5 162t158 180.5t249 193.5l-4 45q-86 -17 -155 -32t-126 -32t-105 -39.5t-93.5 -53.5
t-90.5 -73t-96.5 -99t-111.5 -132t-135 -171q-102 -131 -245 -313t-333 -419z" />
</svg>
