<?xml version="1.0" standalone="no"?>
<!DOCTYPE svg PUBLIC "-//W3C//DTD SVG 1.1//EN" "http://www.w3.org/Graphics/SVG/1.1/DTD/svg11.dtd" >
<svg xmlns="http://www.w3.org/2000/svg" xmlns:xlink="http://www.w3.org/1999/xlink" version="1.1" viewBox="-10 0 1792 2048">
   <path fill="currentColor"
d="M6 919q-6 -18 -6 -39q0 -61 53 -135.5t149 -163.5t229 -193.5t292 -225.5q82 19 161 56t149.5 89.5t129.5 119t103 144.5q-63 60 -118 87.5t-104 27.5q-94 0 -182 -33q-22 -8 -44 -12t-45 -4q-38 0 -73.5 9t-73.5 33.5t-79.5 67.5t-89.5 111q-2 4 -2 7q0 14 46 20t124 6
q64 0 140.5 -3t157 -7.5t160.5 -10.5t152 -12q73 29 129.5 92t95.5 174q-22 20 -47.5 31.5t-55 17t-64 7t-74.5 1.5q-28 0 -57 -1t-58 -1q-42 0 -79.5 7.5t-66 27t-45 52.5t-16.5 85q0 20 29 75t82.5 129t128.5 159.5t168 167.5t200.5 152t225.5 114v62q-24 1 -55.5 1.5
t-69.5 0.5q-58 0 -123.5 -1.5t-130.5 -6t-125 -13t-107 -22.5q-124 -170 -254.5 -309.5t-255 -258t-237.5 -222t-203 -202.5q-118 -128 -164 -258z" />
</svg>
