<?xml version="1.0" standalone="no"?>
<!DOCTYPE svg PUBLIC "-//W3C//DTD SVG 1.1//EN" "http://www.w3.org/Graphics/SVG/1.1/DTD/svg11.dtd" >
<svg xmlns="http://www.w3.org/2000/svg" xmlns:xlink="http://www.w3.org/1999/xlink" version="1.1" viewBox="-10 0 1753 2048">
   <path fill="currentColor"
d="M952 1306q-51 -39 -108 -92.5t-112.5 -117.5t-107 -136.5t-92.5 -148.5q-48 -88 -76.5 -185t-28.5 -191q0 -139 75 -273l35 -45q20 131 67.5 255t114 239t147 220.5t166.5 200.5t173 179t165.5 155t145.5 129t112 102q64 73 64 140q0 59 -46 113.5t-121.5 102t-172 87
t-197.5 67t-198 43t-174 15.5q-26 0 -50 -1.5t-47 -5.5v-163q131 -16 225.5 -46.5t155 -72.5t89 -93.5t28.5 -108.5q0 -45 -16.5 -92t-46.5 -94t-73 -93t-96 -89zM502 2210q-143 -15 -239 -38.5t-154.5 -55.5t-83.5 -73.5t-25 -92.5q0 -90 84 -201q63 -84 131 -167.5
t145 -168.5q154 -171 172 -309l46 55v18q0 164 -78 299q-42 72 -81 134t-77 114q-64 86 -64 139q0 35 43 52.5t151 17.5h30v277z" />
</svg>
