<?xml version="1.0" standalone="no"?>
<!DOCTYPE svg PUBLIC "-//W3C//DTD SVG 1.1//EN" "http://www.w3.org/Graphics/SVG/1.1/DTD/svg11.dtd" >
<svg xmlns="http://www.w3.org/2000/svg" xmlns:xlink="http://www.w3.org/1999/xlink" version="1.1" viewBox="-10 0 2265 2048">
   <path fill="currentColor"
d="M0 172q161 1 328 7t337 12.5t341.5 12t341.5 5.5q180 0 357 -7.5t353 -29.5q76 20 110.5 62t34.5 110q0 49 -17.5 116.5t-49 153t-75 188t-95.5 220.5l-45 -45q3 -33 3 -64q0 -101 -31.5 -178t-81 -129t-110.5 -78.5t-119 -26.5q-37 0 -72 12.5t-62 37.5t-43.5 62.5
t-16.5 86.5q0 99 66 250q-152 2 -263.5 23t-184 59.5t-108 92t-35.5 120.5q0 93 66 203t191 227.5t305 238t408 234.5v62q-165 -2 -320.5 -36.5t-297.5 -91.5t-269.5 -131t-236.5 -155.5t-198 -166t-153 -161.5q-62 -73 -91.5 -123.5t-30.5 -76.5q1 -50 17.5 -89.5t43 -72
t60.5 -60.5t70 -54.5t70.5 -54.5t62 -60.5t45.5 -72t20 -89.5q-1 -28 -27.5 -61.5t-74.5 -72.5t-115.5 -84.5t-151.5 -99.5l-256 -170v-55z" />
</svg>
