<?xml version="1.0" standalone="no"?>
<!DOCTYPE svg PUBLIC "-//W3C//DTD SVG 1.1//EN" "http://www.w3.org/Graphics/SVG/1.1/DTD/svg11.dtd" >
<svg xmlns="http://www.w3.org/2000/svg" xmlns:xlink="http://www.w3.org/1999/xlink" version="1.1" viewBox="-10 0 1519 2048">
   <path fill="currentColor"
d="M0 1796q17 -34 35 -66t42.5 -72.5t59 -95.5t84.5 -134.5t119 -190.5t162.5 -263.5t214.5 -352.5t276 -459q69 35 114 67t77 67.5t58 77.5t58 97q20 34 48 74t65 88v61q-83 15 -142.5 21t-102 9.5t-71.5 7.5t-50.5 13.5t-39 28t-37.5 51.5t-46 83.5t-64 123.5
q-49 81 -83 143.5t-55.5 110t-31 81.5t-9.5 58q0 40 26 55t69.5 21.5t100 13t116.5 29.5q66 30 115.5 60t88.5 66t70 81t60.5 104.5t61 135.5t69.5 174l-45 45q-33 -42 -72.5 -87t-93.5 -87.5t-127 -80.5t-173 -66.5t-231 -45.5t-301 -17q-167 0 -374 15z" />
</svg>
