<?xml version="1.0" standalone="no"?>
<!DOCTYPE svg PUBLIC "-//W3C//DTD SVG 1.1//EN" "http://www.w3.org/Graphics/SVG/1.1/DTD/svg11.dtd" >
<svg xmlns="http://www.w3.org/2000/svg" xmlns:xlink="http://www.w3.org/1999/xlink" version="1.1" viewBox="-10 0 2396 2048">
   <path fill="currentColor"
d="M1225 557q-70 -41 -119.5 -64.5t-85.5 -36t-61 -19t-45 -14.5t-37.5 -22t-39.5 -41.5t-50.5 -72t-69.5 -115.5q6 2 133 2h743q109 0 209 -1t191 -1q59 0 103.5 28t82.5 69.5t75 89.5t81 89v62q-57 -17 -109 -23.5t-106 -6.5q-52 0 -110 6.5t-128 17.5l-209 28
q-16 55 -34.5 130.5t-38 163t-39 182.5t-36 189t-29 183t-19.5 164q57 9 113.5 15.5t115.5 17t122 28.5t134 50t151.5 81t174.5 121l-45 45q-137 -44 -283 -66t-304 -22q-166 0 -333.5 18.5t-326.5 50t-304.5 72t-267.5 84.5t-215 88t-148 83h-61q37 -97 132.5 -185.5
t230 -166.5t298.5 -146t338 -125q13 -53 34 -135t44.5 -178.5t48.5 -200t45.5 -200t35 -179.5t18.5 -137z" />
</svg>
