<?xml version="1.0" standalone="no"?>
<!DOCTYPE svg PUBLIC "-//W3C//DTD SVG 1.1//EN" "http://www.w3.org/Graphics/SVG/1.1/DTD/svg11.dtd" >
<svg xmlns="http://www.w3.org/2000/svg" xmlns:xlink="http://www.w3.org/1999/xlink" version="1.1" viewBox="-10 0 1106 2048">
   <path fill="currentColor"
d="M0 725q90 -78 158.5 -154t131.5 -147.5t127.5 -137.5t145.5 -124h62q47 53 96.5 112t96.5 117t88.5 111t72 93.5t48.5 64.5t17 24q-110 154 -199.5 271.5t-153 214t-98 178.5t-34.5 166q0 57 14.5 119.5t46.5 135.5t82 157.5t121 186.5l-43 45q-129 -76 -236 -183
t-192.5 -232t-149.5 -261t-107.5 -269.5t-67 -259t-27.5 -228.5zM756 651v-3q0 -20 -79 -20q-43 0 -100.5 5.5t-116.5 15.5t-112.5 23.5t-89.5 29.5q-3 19 -5 40q-2 18 -3 42.5t-1 51.5q0 50 4.5 100.5t18 92t38 68t65.5 27.5q57 0 99.5 -19.5t75.5 -53t59 -79.5t49.5 -98.5
t46.5 -109.5t51 -113z" />
</svg>
