<?xml version="1.0" standalone="no"?>
<!DOCTYPE svg PUBLIC "-//W3C//DTD SVG 1.1//EN" "http://www.w3.org/Graphics/SVG/1.1/DTD/svg11.dtd" >
<svg xmlns="http://www.w3.org/2000/svg" xmlns:xlink="http://www.w3.org/1999/xlink" version="1.1" viewBox="-10 0 676 2048">
   <path fill="currentColor"
d="M102 854q2 -28 18 -57.5t39 -61.5t50.5 -66.5t52.5 -72.5q26 -38 36 -80t11 -90q-5 -97 -110 -219l45 -45q94 48 155.5 92.5t97.5 88t50.5 86.5t14.5 88q0 33 -11.5 71t-29.5 76t-40 75t-43 70q-32 50 -45.5 95.5t-13.5 88.5q3 28 22 57t40.5 57.5t39 54.5t17.5 48
q0 27 -26 45.5t-89 32.5q-52 -7 -93 -33t-72 -62.5t-53 -81.5t-36 -89.5t-20.5 -86.5t-6.5 -73v-8z" />
</svg>
