<?xml version="1.0" standalone="no"?>
<!DOCTYPE svg PUBLIC "-//W3C//DTD SVG 1.1//EN" "http://www.w3.org/Graphics/SVG/1.1/DTD/svg11.dtd" >
<svg xmlns="http://www.w3.org/2000/svg" xmlns:xlink="http://www.w3.org/1999/xlink" version="1.1" viewBox="-10 0 2461 2048">
   <path fill="currentColor"
d="M1382 1349q46 -101 102.5 -216t124 -232.5t147 -231.5t172.5 -212t199.5 -175t227.5 -120l45 45q-125 152 -209 297.5t-135 283.5t-73 269t-22 254q0 134 18.5 256.5t46.5 229t59.5 194.5t58.5 153l-45 45q-63 0 -115.5 -11t-98 -31.5t-86 -48t-77.5 -60.5l-155 -144
q-83 -77 -191 -145q-266 0 -451.5 5.5t-293.5 16.5q-215 23 -266 74q-53 53 -95 143q-21 45 -77.5 100t-147.5 122l-45 -45q22 -47 32 -113.5t14.5 -145t6 -166.5t5.5 -178.5t14 -181t32 -174.5q40 -171 162 -287h62q0 148 36 244.5t101.5 152.5t158 78.5t206.5 22.5
q121 0 261 -20.5t291 -47.5z" />
</svg>
