<?xml version="1.0" standalone="no"?>
<!DOCTYPE svg PUBLIC "-//W3C//DTD SVG 1.1//EN" "http://www.w3.org/Graphics/SVG/1.1/DTD/svg11.dtd" >
<svg xmlns="http://www.w3.org/2000/svg" xmlns:xlink="http://www.w3.org/1999/xlink" version="1.1" viewBox="-10 0 2130 2048">
   <path fill="currentColor"
d="M0 2165q89 -129 174 -270t169 -286.5t169 -293t174 -289.5q89 -143 189 -273t215 -241t247 -200t285 -150q32 19 32 51q0 18 -9 43.5t-20 61t-20 82t-10 106.5q0 108 58 270h-62q-65 -43 -135 -43q-51 0 -103.5 22.5t-103.5 60t-99.5 85.5t-91 99.5t-78 102.5t-61 93
t-40 72t-15.5 40q5 61 90 61q49 0 114 -16t135.5 -44t142.5 -65.5t137 -81t118 -91t85 -94.5h2q4 0 8 4l10 10l12 16q7 10 13 15q30 75 57 126.5t51 85.5t45.5 54t42 32t40.5 20t40 18q33 16 61 73q-63 -3 -124 -3q-260 0 -504.5 57t-479.5 160.5t-462.5 247t-452.5 317.5z
" />
</svg>
