<?xml version="1.0" standalone="no"?>
<!DOCTYPE svg PUBLIC "-//W3C//DTD SVG 1.1//EN" "http://www.w3.org/Graphics/SVG/1.1/DTD/svg11.dtd" >
<svg xmlns="http://www.w3.org/2000/svg" xmlns:xlink="http://www.w3.org/1999/xlink" version="1.1" viewBox="-14 0 1949 2048">
   <path fill="currentColor"
d="M676 1442q183 -10 350 -207q84 -99 162.5 -212t154.5 -243q76 -129 149.5 -238.5t145.5 -203.5q136 -176 272 -176h15q-33 68 -63.5 152.5t-53.5 179.5t-36.5 197.5t-13.5 205.5q0 133 24.5 251.5t81.5 221.5v61q-62 -3 -120 -3q-147 0 -282.5 22t-267.5 63.5t-263 101
t-269.5 135t-286.5 165.5t-314 192h-61q-4 -19 -4 -48q0 -63 20 -156.5t55.5 -204t83 -232t102.5 -240.5t115 -230t120 -200h61q-6 36 -17 85.5t-21.5 105.5t-18.5 114.5t-8 112.5q0 49 9.5 90.5t31.5 71.5t58 47.5t89 18.5z" />
</svg>
