<?xml version="1.0" standalone="no"?>
<!DOCTYPE svg PUBLIC "-//W3C//DTD SVG 1.1//EN" "http://www.w3.org/Graphics/SVG/1.1/DTD/svg11.dtd" >
<svg xmlns="http://www.w3.org/2000/svg" xmlns:xlink="http://www.w3.org/1999/xlink" version="1.1" viewBox="-10 0 2171 2048">
   <path fill="currentColor"
d="M645 1155q35 -129 35 -242q0 -86 -17 -165t-42 -151t-54.5 -136t-55 -119t-42.5 -100t-18 -80h61q52 43 121 83t149.5 71t168.5 50t180 19q100 0 199.5 -24t205.5 -77q20 5 43 5q13 0 24.5 -2.5t22.5 -2.5q26 0 47 7t37 24q-12 36 -46 71.5t-82 73t-106 78.5t-118 88
q-63 49 -119 107t-98.5 128.5t-68.5 153.5t-28 181q9 223 166 356q157 134 367 219q104 42 195 81t170 75q156 73 167 170l-45 45q-151 -56 -284.5 -95t-253.5 -64t-228 -36t-208 -11q-152 0 -287.5 24.5t-260.5 63.5t-243.5 88t-237.5 98h-61q0 -42 13.5 -74t43.5 -55
t69 -52t85.5 -72.5t99.5 -107t111 -155.5q57 -91 112 -225.5t111 -313.5z" />
</svg>
