<?xml version="1.0" standalone="no"?>
<!DOCTYPE svg PUBLIC "-//W3C//DTD SVG 1.1//EN" "http://www.w3.org/Graphics/SVG/1.1/DTD/svg11.dtd" >
<svg xmlns="http://www.w3.org/2000/svg" xmlns:xlink="http://www.w3.org/1999/xlink" version="1.1" viewBox="-10 0 1945 2048">
   <path fill="currentColor"
d="M1343 405q-4 -24 -23.5 -42t-44 -34.5t-48 -35t-33.5 -43.5q-3 -7 -3 -18q0 -29 28 -70h73q34 0 80 0.5t98.5 1.5t108.5 3t110.5 5.5t104.5 8t90 11.5q-6 199 -184 387q-91 96 -189 189t-206 186q-75 65 -143 133.5t-119.5 136.5t-81.5 133t-30 122q0 98 75 192
q94 115 163.5 189.5t122.5 121t95 72t81 43.5l111 51v62h-748q-79 -92 -151.5 -169.5t-136.5 -145.5t-119 -130.5t-98 -124.5t-73 -127.5t-44 -140.5q-6 -30 -6 -59q0 -42 15.5 -79t40 -71t55.5 -65t63 -62q22 -22 42 -49.5t34 -59t22.5 -66t8.5 -70.5q0 -97 -58 -234
q-45 -20 -83 -20q-34 0 -70 13t-69.5 28t-64 28t-54.5 13q-29 0 -49.5 -20t-35.5 -73q64 -12 120.5 -38.5t109 -61t101.5 -74.5t97 -78q60 -48 129.5 -78t141.5 -30q94 0 214 57q-56 37 -91.5 88t-56 113t-28.5 134t-8 150q0 60 2.5 117.5t7.5 114.5q28 14 63 14
q52 0 112 -33t119 -85t114 -115.5t97.5 -124.5t69 -112.5t29.5 -78.5z" />
</svg>
