<?xml version="1.0" standalone="no"?>
<!DOCTYPE svg PUBLIC "-//W3C//DTD SVG 1.1//EN" "http://www.w3.org/Graphics/SVG/1.1/DTD/svg11.dtd" >
<svg xmlns="http://www.w3.org/2000/svg" xmlns:xlink="http://www.w3.org/1999/xlink" version="1.1" viewBox="-10 0 1556 2048">
   <path fill="currentColor"
d="M0 1124q74 -42 145 -97.5t137.5 -118.5t128 -132t116.5 -139.5t102.5 -139t87.5 -131.5h14q48 0 106 -7.5t120 -20.5t124.5 -31.5t120.5 -41.5t107 -49t84 -54h41q-10 72 -46.5 147.5t-91.5 151t-123.5 149t-140.5 140t-144 124.5t-134 103q-58 42 -87.5 63.5t-31.5 22.5
q78 86 114.5 173t36.5 178q0 85 -28 167t-78 159t-119 147.5t-151 130.5t-175 109t-190 83l-45 -45q90 -49 165 -117t129.5 -146.5t85 -163t30.5 -167.5q0 -69 -24 -130t-74 -111t-127.5 -87t-184.5 -57v-62z" />
</svg>
