<?xml version="1.0" standalone="no"?>
<!DOCTYPE svg PUBLIC "-//W3C//DTD SVG 1.1//EN" "http://www.w3.org/Graphics/SVG/1.1/DTD/svg11.dtd" >
<svg xmlns="http://www.w3.org/2000/svg" xmlns:xlink="http://www.w3.org/1999/xlink" version="1.1" viewBox="-10 0 1915 2048">
   <path fill="currentColor"
d="M0 950q0 -93 30 -181.5t82 -168t123 -149t153 -126t171 -98t178 -65.5q173 0 312 -1t251 -1q106 0 190 2t150.5 9.5t118.5 22t94 39.5q-45 219 -167 402q-62 93 -116.5 189.5t-101.5 199.5q-63 138 -63 309q0 87 18 179t59.5 193.5t108 215t164.5 244.5l-45 45
q-79 -25 -176 -70.5t-203.5 -105.5t-220 -132t-226 -150t-221.5 -159.5t-206.5 -160.5t-180 -153t-143 -137t-95.5 -112.5t-38 -79.5zM1128 485q-43 -40 -110 -40q-61 0 -128.5 31t-124 82t-93.5 117.5t-37 137.5q0 50 17 100.5t44.5 97t62.5 87t71 70.5t69.5 47.5
t58.5 17.5q23 0 37 -14t21.5 -34t9.5 -43.5t2 -43.5q0 -45 -6.5 -98t-6.5 -107q0 -56 13 -108.5t30.5 -99t36 -85.5t29.5 -68q3 -9 5 -16.5t2 -14.5q0 -8 -3 -16z" />
</svg>
