<?xml version="1.0" standalone="no"?>
<!DOCTYPE svg PUBLIC "-//W3C//DTD SVG 1.1//EN" "http://www.w3.org/Graphics/SVG/1.1/DTD/svg11.dtd" >
<svg xmlns="http://www.w3.org/2000/svg" xmlns:xlink="http://www.w3.org/1999/xlink" version="1.1" viewBox="-10 0 1822 2048">
   <path fill="currentColor"
d="M0 162q94 0 187.5 4.5t189.5 9.5l393 22q121 8 245.5 13t252.5 5q83 0 167.5 -3t172.5 -10q24 29 45.5 59t40.5 66.5t35.5 80.5t31.5 101q-24 -1 -53 -4.5t-60.5 -8t-64 -8t-63.5 -3.5q-43 0 -81 8t-66.5 31t-45 63.5t-16.5 105.5q0 44 8 71.5t22 44t33.5 22.5t42.5 6
q29 0 62.5 -5.5t69.5 -12t73 -12.5t74 -7l45 47q-151 74 -290 171.5t-269 210.5t-251.5 237.5t-236.5 251t-224 251.5t-214 240h-102q61 -142 135 -282.5t150.5 -274t149 -258.5t129.5 -234.5t93 -202t39 -162.5q-3 -41 -41.5 -88.5t-102 -97.5t-146.5 -101.5t-176.5 -101.5
t-192 -96.5t-191.5 -87.5v-61z" />
</svg>
