<?xml version="1.0" standalone="no"?>
<!DOCTYPE svg PUBLIC "-//W3C//DTD SVG 1.1//EN" "http://www.w3.org/Graphics/SVG/1.1/DTD/svg11.dtd" >
<svg xmlns="http://www.w3.org/2000/svg" xmlns:xlink="http://www.w3.org/1999/xlink" version="1.1" viewBox="-13 0 1395 2048">
   <path fill="currentColor"
d="M66 1257q-69 -156 -69 -288q0 -91 29.5 -174t79 -157t114.5 -140.5t136 -124.5q67 -55 134.5 -107.5t138.5 -103.5l45 36q-48 48 -88 120.5t-68 154t-43.5 164.5t-15.5 153q0 54 12 89t36 54.5t59 27t81 7.5q49 0 110 -8t134.5 -21.5t160 -30.5t185.5 -34l45 45
q-105 53 -185 94t-140 73.5t-101.5 59t-69 49.5t-43.5 45.5t-24 47.5q-28 68 -28 140q0 67 31.5 141.5t105.5 163t197 195t306 237.5l-45 45q-135 -58 -273.5 -141t-269 -176.5t-247 -190.5t-207 -183.5t-149.5 -155.5t-74 -106z" />
</svg>
