<?xml version="1.0" standalone="no"?>
<!DOCTYPE svg PUBLIC "-//W3C//DTD SVG 1.1//EN" "http://www.w3.org/Graphics/SVG/1.1/DTD/svg11.dtd" >
<svg xmlns="http://www.w3.org/2000/svg" xmlns:xlink="http://www.w3.org/1999/xlink" version="1.1" viewBox="-10 0 2068 2048">
   <path fill="currentColor"
d="M1311 2046q-51 -16 -94 -28t-79.5 -19.5t-69.5 -11t-64 -3.5q-33 0 -66.5 3.5t-70 11t-78.5 19.5t-93 28q-60 -1 -60 -36q0 -21 14.5 -50.5t31.5 -62t31.5 -65t14.5 -59.5q0 -34 -28.5 -52t-101.5 -21q-38 1 -66 13.5t-51 34t-43.5 50.5t-45 62t-55.5 69t-73 72
q-77 65 -219 106l-45 -45q124 -93 215 -190t151.5 -204t91.5 -228.5t34 -264.5q-2 -124 -24.5 -229t-60 -194t-86 -165t-102.5 -142.5t-110.5 -124.5t-108.5 -113l51 -45q167 6 252 92q84 86 135 198q52 118 117 199q67 84 203 84q71 -5 71 -70q0 -31 -9.5 -70.5t-24 -83.5
t-31 -89.5t-29.5 -87.5q-8 -25 -11.5 -47t-3.5 -40q0 -26 7 -44q76 24 143.5 35.5t133.5 11.5q63 0 130.5 -11.5t145.5 -35.5q6 18 6 41q0 24 -7.5 55.5t-19 67t-25.5 72t-26 71.5q-17 46 -24.5 85t-7.5 70q0 66 73 70q133 0 201 -84q33 -42 62 -91.5t55 -107.5
q51 -112 135 -198t254 -92l51 45q-50 51 -106 108.5t-110.5 123.5t-104.5 143t-87.5 167.5t-60 196t-22.5 229.5q0 144 30.5 266t91.5 229.5t153.5 203.5t215.5 188l-45 45q-98 -28 -163.5 -68.5t-110 -85.5t-75 -89.5t-59.5 -80.5t-62 -59t-83 -24q-74 3 -103 20t-29 51
q0 25 14.5 58t31.5 67t31.5 64.5t14.5 49.5q0 34 -58 36z" />
</svg>
