<?xml version="1.0" standalone="no"?>
<!DOCTYPE svg PUBLIC "-//W3C//DTD SVG 1.1//EN" "http://www.w3.org/Graphics/SVG/1.1/DTD/svg11.dtd" >
<svg xmlns="http://www.w3.org/2000/svg" xmlns:xlink="http://www.w3.org/1999/xlink" version="1.1" viewBox="-10 0 1505 2048">
   <path fill="currentColor"
d="M0 889q43 -54 77 -104t64 -96t59 -88.5t62.5 -82.5t74 -78t93.5 -74q56 99 101.5 167t84.5 110t72.5 60.5t65.5 18.5q31 0 64.5 -21.5t69.5 -59t76 -88.5t85 -109q110 -145 305 -282l45 45q-47 65 -150 237q-37 61 -72.5 139t-63.5 167.5t-45 188t-17 198.5q0 117 20 233
t66 235t121 242.5t186 255.5l-45 45q-90 -64 -165 -141.5t-138 -160t-114.5 -167t-94.5 -164t-78.5 -151t-65.5 -127.5q-36 -67 -65 -95.5t-61 -28.5q-37 0 -65 15t-47 36t-28.5 44t-9.5 39q0 6 1 11t3 10q-35 -21 -49 -43.5t-14 -51.5q-1 -15 3 -29.5t9 -29.5l29 -80
q7 -20 7 -39q0 -38 -33.5 -54.5t-85.5 -16.5q-9 1 -18 1t-20 1l-135 12q-78 8 -164 12v-61z" />
</svg>
