<?xml version="1.0" standalone="no"?>
<!DOCTYPE svg PUBLIC "-//W3C//DTD SVG 1.1//EN" "http://www.w3.org/Graphics/SVG/1.1/DTD/svg11.dtd" >
<svg xmlns="http://www.w3.org/2000/svg" xmlns:xlink="http://www.w3.org/1999/xlink" version="1.1" viewBox="-10 0 1703 2048">
   <path fill="currentColor"
d="M582 999q-50 15 -93 35q-43 18 -79 43q-37 25 -70 55q-31 31 -57 64q-31 37 -52 76q-22 36 -34 77q-15 41 -21 84q-8 41 -6 86v33q0 12 2 25q0 12 4 24q2 15 8 31q19 -14 37 -29q21 -14 37 -30q18 -15 35 -31q16 -14 33 -31q14 -14 26 -30q15 -15 27 -31q12 -15 24 -31
q11 -16 23 -33l279 463q-35 2 -62 2q-29 2 -51 4q-23 2 -43 6q-21 2 -41 7q-23 6 -41 10q-21 4 -39 10q-20 6 -39 14q-18 7 -35 15q19 18 41 35q21 14 43 28q21 15 45 25q23 10 47 18q23 10 48 17q24 6 49 12q26 4 53 6t55 2q27 0 51 -2q27 -2 54 -6q24 -6 49 -12
q24 -7 49 -17q23 -8 45 -18q23 -10 45 -25q21 -12 43 -28q21 -15 41 -33q-20 -4 -41 -10q-20 -7 -43 -11q-20 -6 -41 -10q-20 -4 -41 -10q-22 -2 -45 -6q-20 -4 -43 -6q-22 -5 -45 -7q-22 -2 -45 -4l279 -469q10 21 22 39q12 19 27 37q12 19 26 35q15 16 31 31q14 16 31 32
q14 15 33 27q16 14 32 29q19 12 37 24q2 -16 6 -30q2 -13 4 -27q2 -12 4 -29q0 -14 3 -37q-3 -45 -11 -88t-20 -84q-15 -39 -35 -77q-20 -39 -47 -76q-29 -35 -62 -64q-32 -30 -69 -53q-37 -25 -78 -43t-86 -33q4 21 8 39q6 21 12 39l13 39q8 18 16 35q4 20 10 39
q7 20 15 39q8 18 14 34q8 19 18 35l-264 445l-266 -445q6 -18 14 -39q9 -18 17 -39q6 -18 14 -38q8 -19 16 -39q7 -17 13 -35q6 -19 12 -37q6 -16 12 -35q6 -18 13 -37zM737 84q2 59 8 114q5 58 11 113q6 57 14 111q8 55 18 108q9 56 17 109q10 53 22 104q11 53 25 105
q12 53 27 102q51 14 100 35q47 18 90 45t80 59q39 33 72 70q30 41 55 82q24 43 41 88q16 45 24 92q9 47 9 96q-2 27 -2 45q-2 19 -5 33q-2 17 -6 31q-4 16 -8 37q19 12 39 20q18 11 39 19q20 8 41 14q20 6 41 10q27 8 49 13q23 4 45 6q21 4 45 4q25 0 55 -4q-14 24 -30 45
q-17 18 -37 37q-21 18 -43 32q-23 17 -49 29q-29 14 -56 25q-28 10 -57 16q-31 6 -61 10q-31 2 -64 2q-20 2 -37 0q-14 0 -24 -2q-13 0 -27 -2q-12 -4 -29 -8q-24 23 -49 41q-22 18 -49 35q-24 16 -51 31q-25 14 -51 24q-29 10 -58 19q-26 6 -55 12q-31 6 -59 8q-31 2 -60 2
q-32 0 -61 -2q-31 -2 -60 -8q-30 -4 -59 -10q-27 -9 -53 -19q-29 -10 -55 -22q-27 -15 -52 -29q-24 -16 -47 -33q-24 -18 -45 -39q-24 13 -45 25q-20 14 -41 29q-18 12 -37 28q-16 15 -30 29q-17 16 -31 33q-17 16 -29 34q-12 19 -22 37q-11 19 -19 39q-6 -6 -12 -16
q-4 -8 -10 -19l-9 -18q-6 -10 -8 -23q-4 -8 -6 -20q-2 -10 -4 -23q0 -10 -2 -24v-27q0 -24 2 -49q2 -27 6 -49q4 -25 12 -47q7 -25 17 -47q8 -21 18 -41q11 -23 25 -43q12 -21 29 -41q16 -19 34 -39l-10 -35q-4 -16 -6 -31q-2 -14 -2 -28q-2 -17 -2 -41q0 -51 6 -103
q8 -49 25 -96q14 -45 36 -88q25 -43 56 -82q30 -37 67 -70q39 -32 82 -59t92 -47q50 -21 105 -37q14 -51 26 -104q15 -52 27 -105q10 -53 21 -106q10 -56 20 -111q8 -53 14 -106q9 -56 15 -111q6 -53 12 -111q6 -55 10 -112z" />
</svg>
