<?xml version="1.0" standalone="no"?>
<!DOCTYPE svg PUBLIC "-//W3C//DTD SVG 1.1//EN" "http://www.w3.org/Graphics/SVG/1.1/DTD/svg11.dtd" >
<svg xmlns="http://www.w3.org/2000/svg" xmlns:xlink="http://www.w3.org/1999/xlink" version="1.1" viewBox="-10 0 1874 2048">
   <path fill="currentColor"
d="M584 362q105 -63 231 -102t269.5 -60.5t302.5 -29.5t331 -8v9q0 74 -100 120q-55 25 -118 50.5t-136 53.5q-74 28 -137.5 66t-116.5 88q-95 89 -95 242v18t1 18h-62q-43 -31 -95.5 -83.5t-104 -111t-96.5 -116.5t-74 -100v-5l4 -14q0 -2 0.5 -4t0.5 -4q0 -6 -1 -14
t-4 -13zM307 260q85 158 191.5 309t240.5 297q129 142 264 277t260 258t234 231.5t186 196.5q125 145 127 237q0 22 -8 41h-1454q-23 -17 -47.5 -39.5t-51 -57t-55 -84t-59.5 -120.5t-64.5 -166.5t-70.5 -222.5l45 -45q70 93 143.5 157t148 104t148 57.5t142.5 17.5
q95 0 169.5 -28.5t112.5 -74.5q10 -13 10 -30q0 -32 -36.5 -89.5t-96.5 -143.5t-136.5 -203t-157.5 -267q-126 -233 -236 -567z" />
</svg>
