<?xml version="1.0" standalone="no"?>
<!DOCTYPE svg PUBLIC "-//W3C//DTD SVG 1.1//EN" "http://www.w3.org/Graphics/SVG/1.1/DTD/svg11.dtd" >
<svg xmlns="http://www.w3.org/2000/svg" xmlns:xlink="http://www.w3.org/1999/xlink" version="1.1" viewBox="-10 0 1966 2048">
   <path fill="currentColor"
d="M430 407q165 -48 340.5 -80.5t356 -58.5t365 -50t368.5 -56l45 45q-84 30 -180 73.5t-196.5 94.5t-201 106.5t-192.5 109t-171.5 101.5t-138.5 84t-93.5 58t-35.5 22t-22 24.5t-60 80.5t-95.5 147t-128.5 225t-158.5 314.5t-186.5 414.5l-45 45q0 -37 5.5 -110.5
t17.5 -172.5t30.5 -218t44 -247.5t58 -260.5t73.5 -256q42 -128 92 -236t109 -199z" />
</svg>
