<?xml version="1.0" standalone="no"?>
<!DOCTYPE svg PUBLIC "-//W3C//DTD SVG 1.1//EN" "http://www.w3.org/Graphics/SVG/1.1/DTD/svg11.dtd" >
<svg xmlns="http://www.w3.org/2000/svg" xmlns:xlink="http://www.w3.org/1999/xlink" version="1.1" viewBox="-10 0 1904 2048">
   <path fill="currentColor"
d="M932 776q46 6 92 6q100 0 199 -27t194 -65l225 -90q54 -21 103.5 -36.5t97.5 -23.5q-2 123 -14 218t-31 174t-44 147.5t-52 138.5q-29 72 -54 152.5t-44.5 180.5t-31 225t-11.5 286l-45 45q-39 -79 -66.5 -164.5t-50 -171.5t-43 -169.5t-44.5 -159.5t-54.5 -141.5
t-73.5 -114.5q-48 -54 -115.5 -78.5t-161.5 -24.5q-84 0 -143.5 4t-101.5 16t-70.5 33.5t-50.5 55.5q-23 36 -45.5 89t-51 126.5t-65 170.5t-88.5 222q-21 -17 -33.5 -27t-20 -18.5t-10 -17.5t-2.5 -24q0 -16 3.5 -46.5t7.5 -86t7.5 -141.5t3.5 -212v-81.5t-1 -90.5
q-5 -84 -14 -148t-23 -117.5t-33.5 -102t-45 -103.5t-58 -121t-72.5 -154l45 -45q122 119 226.5 207.5t207 150.5t212 99.5t241.5 54.5z" />
</svg>
