<?xml version="1.0" standalone="no"?>
<!DOCTYPE svg PUBLIC "-//W3C//DTD SVG 1.1//EN" "http://www.w3.org/Graphics/SVG/1.1/DTD/svg11.dtd" >
<svg xmlns="http://www.w3.org/2000/svg" xmlns:xlink="http://www.w3.org/1999/xlink" version="1.1" viewBox="-12 0 1077 2048">
   <path fill="currentColor"
d="M696 2210q-25 -3 -60.5 -35.5t-78 -89.5t-90 -134.5t-96 -170t-96 -196.5t-91 -213.5t-80.5 -221t-63 -219.5q-43 -171 -43 -313q0 -56 6 -105t22 -91t43.5 -76.5t69.5 -62.5q47 -32 105 -54.5t122 -36.5t133 -20.5t139 -6.5q118 0 222 12l45 45q-26 16 -70.5 32
t-97.5 41t-107 63t-98 97.5t-72 145.5t-28 206q0 31 2 64.5t6 69.5q22 29 53.5 41t78.5 12q65 0 154 -23t212 -65l45 45q-84 60 -144 99.5t-98.5 69.5t-56.5 57.5t-18 63.5q0 25 10 36t33 11t55 -10.5t67.5 -25t71 -31t66.5 -28.5l45 45q-88 76 -161.5 139t-127 123.5
t-83.5 124t-30 140.5q0 75 31 173.5t98 227.5z" />
</svg>
