<?xml version="1.0" standalone="no"?>
<!DOCTYPE svg PUBLIC "-//W3C//DTD SVG 1.1//EN" "http://www.w3.org/Graphics/SVG/1.1/DTD/svg11.dtd" >
<svg xmlns="http://www.w3.org/2000/svg" xmlns:xlink="http://www.w3.org/1999/xlink" version="1.1" viewBox="-10 0 1495 2048">
   <path fill="currentColor"
d="M717 162q27 76 70.5 137t96 110.5t112.5 91t120 79t118 73t107 74.5q88 69 93 158q-116 -49 -197 -67t-139 -18q-45 0 -77.5 10t-55 23.5t-36 27.5t-18.5 21q-59 62 -84 147.5t-25 200.5q0 74 10.5 154t29.5 160.5t45.5 160t57.5 152t66.5 136.5t73.5 114l-45 45
q-79 0 -144.5 -9.5t-121.5 -20.5t-104 -20.5t-92 -9.5q-50 0 -93 13t-92 47l-45 -45q36 -49 71 -112.5t66 -136t58 -152t46 -160.5t30 -161.5t11 -155.5q0 -133 -35 -226.5t-114 -156.5q-19 -19 -57.5 -32.5t-90.5 -13.5q-59 0 -139 18t-194 67q0 -36 13 -67.5t35 -60
t52 -53t64 -45.5l139 -86q34 -21 60.5 -41t49.5 -43t45 -51t48 -65l90 -127q32 -45 57.5 -73t42.5 -28q14 0 21 17z" />
</svg>
